/usr/bin/ffmpeg -hide_banner -y -y -r 24 -start_number 0 -start_number_range 1 -i /home/jade/Desktop/projects/code/flash/tpevault/anim/frame%04d.png -i /home/jade/Desktop/projects/code/flash/tpevault/anim/KritaTempPalettegen_%06d.png -lavfi [0:v][1:v]paletteuse=dither=sierra2_4a:diff_mode=none -f gif -loop 0 -gifflags +transdiff /home/jade/Desktop/projects/code/flash/tpevault/anim/005.gif
=====================================================
Input #0, image2, from '/home/jade/Desktop/projects/code/flash/tpevault/anim/frame%04d.png':
  Duration: 00:00:01.04, start: 0.000000, bitrate: N/A
  Stream #0:0: Video: png, rgba(pc, gbr/unknown/unknown), 780x540 [SAR 11811:11811 DAR 13:9], 25 fps, 25 tbr, 25 tbn
Input #1, image2, from '/home/jade/Desktop/projects/code/flash/tpevault/anim/KritaTempPalettegen_%06d.png':
  Duration: 00:00:00.04, start: 0.000000, bitrate: N/A
  Stream #1:0: Video: png, rgba(pc, gbr/unknown/unknown), 16x16 [SAR 1:1 DAR 1:1], 25 fps, 25 tbr, 25 tbn
Stream mapping:
  Stream #0:0 (png) -> paletteuse
  Stream #1:0 (png) -> paletteuse
  paletteuse:default -> Stream #0:0 (gif)
Press [q] to stop, [?] for help
Output #0, gif, to '/home/jade/Desktop/projects/code/flash/tpevault/anim/005.gif':
  Metadata:
    encoder         : Lavf61.1.100
  Stream #0:0: Video: gif, pal8(pc, gbr/unknown/unknown, progressive), 780x540 [SAR 1:1 DAR 13:9], q=2-31, 200 kb/s, 24 fps, 100 tbn
      Metadata:
        encoder         : Lavc61.3.100 gif
[out#0/gif @ 0x61d73129b180] video:12KiB audio:0KiB subtitle:0KiB other streams:0KiB global headers:0KiB muxing overhead: 0.169090%
frame=   26 fps=0.0 q=-0.0 Lsize=      12KiB time=00:00:01.08 bitrate=  87.5kbits/s speed=3.24x    
